<svg xmlns="http://www.w3.org/2000/svg" viewBox="0 0 200 200" width="200" height="200" role="img">
  <defs><clipPath id="c"><circle cx="100" cy="100" r="100"/></clipPath></defs>
  <g clip-path="url(#c)">
    <rect width="200" height="200" fill="#EFEAFB"/>
    <path d="M38 200 C38 162 70 150 100 150 C130 150 162 162 162 200 Z" fill="#B5642A"/>
    <path d="M56 86 C54 52 78 40 100 40 C122 40 146 52 144 86 C140 62 120 56 100 56 C80 56 60 62 56 86 Z" fill="#16110D"/>
    
    <rect x="88" y="120" width="24" height="34" rx="12" fill="#E7B98C"/>
    <ellipse cx="56" cy="98" rx="8" ry="10" fill="#E7B98C"/>
    <ellipse cx="144" cy="98" rx="8" ry="10" fill="#E7B98C"/>
    <path d="M58 92 C58 56 78 44 100 44 C122 44 142 56 142 92 C142 122 124 142 100 142 C76 142 58 122 58 92 Z" fill="#E7B98C"/>
    
    <g fill="#3A2A20"><circle cx="84" cy="96" r="4.6"/><circle cx="116" cy="96" r="4.6"/></g>
    <g stroke="#3A2A20" stroke-width="3.2" stroke-linecap="round"><path d="M76 85 q8 -4 16 0"/><path d="M108 85 q8 -4 16 0"/></g>
    <path d="M92 118 q8 7 16 0" fill="none" stroke="#B5654B" stroke-width="3.4" stroke-linecap="round"/>
    
  <g fill="none" stroke="#2B3138" stroke-width="3">
    <rect x="70" y="88" width="22" height="18" rx="6"/><rect x="108" y="88" width="22" height="18" rx="6"/>
    <path d="M92 96 h16"/><path d="M70 94 l-9 -3"/><path d="M130 94 l9 -3"/>
  </g>
  </g>
</svg>
